# File created by Blade
# Date/Time:  Thu Jan 22 19:13:21 2015
#---------------------------------------------------------
:version 1.10
:name HOM
:units
  mass 1.0
  length 1.000000
  angle deg
:documentation
     Acclaim Skeleton File
:root
   axis xyz
   order TX TY TZ RX RY RZ
   position 0.000000 0.000000 0.000000
   orientation 0 0 0
:bonedata
   begin
      id 1
      name RightUpLeg_dum
      direction -1.000000 0.000000 0.000000
      length 4.478084
      axis 0.0 0.0 0.0 xyz
   end
   begin
      id 2
      name LeftUpLeg_dum
      direction 1.000000 0.000000 0.000000
      length 4.478084
      axis 0.0 0.0 0.0 xyz
   end
   begin
      id 3
      name Spine_dum
      direction 0.000000 1.000000 0.000000
      length 6.068208
      axis 0.0 0.0 0.0 xyz
   end
   begin
      id 4
      name RightUpLeg
      direction 0.000000 -1.000000 0.000000
      length 16.405774
      axis 0.0 0.0 0.0 xyz
      dof rx ry rz
   end
   begin
      id 5
      name RightLeg
      direction 0.000000 -1.000000 0.000000
      length 14.644143
      axis 0.0 0.0 0.0 xyz
      dof rx ry rz
   end
   begin
      id 6
      name RightFoot
      direction 0.000000 -0.258819 0.965926
      length 5.806150
      axis 15.0 0.0 0.0 xyz
      dof rx ry rz
   end
   begin
      id 7
      name RightToeBase
      direction 0.000000 0.000000 1.000000
      length 2.952750
      axis 0.0 0.0 0.0 xyz
      dof rx ry rz
   end
   begin
      id 8
      name LeftUpLeg
      direction 0.000000 -1.000000 0.000000
      length 16.405774
      axis 0.0 0.0 0.0 xyz
      dof rx ry rz
   end
   begin
      id 9
      name LeftLeg
      direction 0.000000 -1.000000 0.000000
      length 14.644143
      axis 0.0 0.0 0.0 xyz
      dof rx ry rz
   end
   begin
      id 10
      name LeftFoot
      direction 0.000000 -0.258819 0.965926
      length 5.806150
      axis 15.0 0.0 0.0 xyz
      dof rx ry rz
   end
   begin
      id 11
      name LeftToeBase
      direction 0.000000 0.000000 1.000000
      length 2.952750
      axis 0.0 0.0 0.0 xyz
      dof rx ry rz
   end
   begin
      id 12
      name Spine
      direction 0.000000 1.000000 0.000000
      length 0.000000
      axis 0.0 0.0 0.0 xyz
      dof rx ry rz
   end
   begin
      id 13
      name Spine_dum1
      direction 0.000000 1.000000 0.000000
      length 10.013923
      axis 0.0 0.0 0.0 xyz
   end
   begin
      id 14
      name Spine_dum2
      direction 0.000000 1.000000 0.000000
      length 10.013923
      axis 0.0 0.0 0.0 xyz
   end
   begin
      id 15
      name Spine_dum3
      direction 0.000000 1.000000 0.000000
      length 15.777476
      axis 0.0 0.0 0.0 xyz
   end
   begin
      id 16
      name RightShoulder
      direction -1.000000 0.000000 0.000000
      length 7.190220
      axis 0.0 0.0 90.0 xyz
      dof rx ry rz
   end
   begin
      id 17
      name RightArm
      direction -1.000000 0.000000 0.000000
      length 10.177469
      axis 0.0 0.0 90.0 xyz
      dof rx ry rz
   end
   begin
      id 18
      name RightForeArm
      direction -1.000000 0.000000 0.000000
      length 8.392114
      axis 0.0 0.0 90.0 xyz
      dof ry rz rx
   end
   begin
      id 19
      name RightHand
      direction -1.000000 0.000000 0.000000
      length 0.000000
      axis 0.0 0.0 90.0 xyz
      dof rx ry rz
   end
   begin
      id 20
      name RightHand_dum1
      direction -1.000000 0.000000 0.000000
      length 3.937000
      axis 0.0 0.0 90.0 xyz
   end
   begin
      id 21
      name RightHand_dum2
      direction 0.000000 0.000000 0.000000
      length 0.000000
      axis 0.0 0.0 90.0 xyz
   end
   begin
      id 22
      name RightHandThumb1
      direction 0.000000 0.000000 1.000000
      length 3.937000
      axis 0.0 0.0 90.0 xyz
      dof rx rz ry
   end
   begin
      id 23
      name LeftShoulder
      direction 1.000000 0.000000 0.000000
      length 7.190220
      axis 0.0 0.0 -90.0 xyz
      dof rx ry rz
   end
   begin
      id 24
      name LeftArm
      direction 1.000000 0.000000 0.000000
      length 10.177469
      axis 0.0 0.0 -90.0 xyz
      dof rx ry rz
   end
   begin
      id 25
      name LeftForeArm
      direction 1.000000 0.000000 0.000000
      length 8.392114
      axis 0.0 0.0 -90.0 xyz
      dof ry rz rx
   end
   begin
      id 26
      name LeftHand
      direction 1.000000 0.000000 0.000000
      length 0.000000
      axis 0.0 0.0 -90.0 xyz
      dof rx ry rz
   end
   begin
      id 27
      name LeftHand_dum1
      direction 1.000000 0.000000 0.000000
      length 3.937000
      axis 0.0 0.0 -90.0 xyz
   end
   begin
      id 28
      name LeftHand_dum2
      direction 0.000000 0.000000 0.000000
      length 0.000000
      axis 0.0 0.0 -90.0 xyz
   end
   begin
      id 29
      name LeftHandThumb1
      direction 0.000000 0.000000 1.000000
      length 3.937000
      axis 0.0 0.0 -90.0 xyz
      dof rx rz ry
   end
   begin
      id 30
      name Head
      direction 0.000000 1.000000 0.000000
      length 4.527550
      axis 0.0 0.0 0.0 xyz
      dof rx ry rz
   end
:hierarchy
   begin
      root RightUpLeg_dum LeftUpLeg_dum Spine_dum
      RightUpLeg_dum RightUpLeg
      LeftUpLeg_dum LeftUpLeg
      Spine_dum Spine
      RightUpLeg RightLeg
      RightLeg RightFoot
      RightFoot RightToeBase
      LeftUpLeg LeftLeg
      LeftLeg LeftFoot
      LeftFoot LeftToeBase
      Spine Spine_dum1 Spine_dum2 Spine_dum3
      Spine_dum1 RightShoulder
      Spine_dum2 LeftShoulder
      Spine_dum3 Head
      RightShoulder RightArm
      RightArm RightForeArm
      RightForeArm RightHand
      RightHand RightHand_dum1 RightHand_dum2
      RightHand_dum2 RightHandThumb1
      LeftShoulder LeftArm
      LeftArm LeftForeArm
      LeftForeArm LeftHand
      LeftHand LeftHand_dum1 LeftHand_dum2
      LeftHand_dum2 LeftHandThumb1
   end

# File created by Blade
# Date/Time:  Thu Jan 22 19:13:14 2015
# Frame Rate: 120.000 fps
#------------------------------------------------------
:FULLY-SPECIFIED
:DEGREES
825
root 3.798759 30.233666 -5.724968 34.899357 -53.181065 -0.913093
RightUpLeg -55.939827 -2.248056 -6.908564
RightLeg 0.517769 -0.000000 -0.000000
RightFoot 11.524580 -1.488959 5.089215
RightToeBase 9.634923 -0.000000 -0.000000
LeftUpLeg -14.206224 34.180263 8.150985
LeftLeg 5.044678 -0.000000 -0.000000
LeftFoot -19.687192 7.301651 -34.595585
LeftToeBase 9.322732 -0.000000 -0.000000
Spine 10.634905 -30.178213 -9.575849
RightShoulder -24.287169 -19.541186 -18.084644
RightArm 2.683735 33.671335 55.440329
RightForeArm 4.571026 0.000000 39.080073
RightHand 20.621845 -0.000000 -21.104695
RightHandThumb1 -24.326973 -0.000000 -32.862282
LeftShoulder -9.280605 -6.355394 25.730703
LeftArm 34.457345 6.900459 -54.853997
LeftForeArm 9.660015 -0.000000 11.073166
LeftHand -0.389169 -0.000000 1.683137
LeftHandThumb1 -26.253704 0.000000 33.147579
Head -14.993469 -7.716111 7.071121
826
root 3.770829 30.218818 -5.752066 35.463993 -53.520871 -1.222505
RightUpLeg -56.375809 -1.853132 -6.899336
RightLeg 0.548326 -0.000000 -0.000000
RightFoot 11.717879 -1.539776 4.963050
RightToeBase 10.483947 -0.000000 -0.000000
LeftUpLeg -14.341047 34.530853 8.121932
LeftLeg 4.938290 -0.000000 -0.000000
LeftFoot -19.659723 7.230601 -35.378433
LeftToeBase 9.746925 -0.000000 -0.000000
Spine 11.239006 -30.501894 -9.920493
RightShoulder -24.339228 -19.577106 -18.034418
RightArm 2.432035 33.420527 55.421065
RightForeArm 5.063823 -0.000000 38.292388
RightHand 20.689232 -0.000000 -21.249515
RightHandThumb1 -24.326973 -0.000000 -32.862282
LeftShoulder -8.883215 -6.678694 25.756234
LeftArm 34.786713 6.895443 -55.116853
LeftForeArm 9.446587 -0.000000 11.132803
LeftHand -0.469299 -0.000000 1.297390
LeftHandThumb1 -26.253704 0.000000 33.147579
Head -15.315449 -7.762687 7.310840
827
root 3.740589 30.204539 -5.777642 36.011938 -53.931968 -1.492183
RightUpLeg -56.856112 -1.419045 -6.953121
RightLeg 0.596546 -0.000000 -0.000000
RightFoot 11.930971 -1.628157 4.912097
RightToeBase 11.082904 -0.000000 -0.000000
LeftUpLeg -14.478022 34.992507 7.983211
LeftLeg 4.773668 -0.000000 -0.000000
LeftFoot -19.572679 7.261634 -36.003908
LeftToeBase 10.297609 -0.000000 -0.000000
Spine 11.805371 -30.831304 -10.366895
RightShoulder -24.267177 -19.599627 -18.042040
RightArm 2.103087 33.239082 55.420866
RightForeArm 5.438951 -0.000000 37.492896
RightHand 20.702194 -0.000000 -21.203054
RightHandThumb1 -24.326973 -0.000000 -32.862282
LeftShoulder -8.558141 -6.976493 25.796956
LeftArm 35.125152 6.992609 -55.275675
LeftForeArm 9.394670 -0.000000 11.180906
LeftHand -0.516923 -0.000000 0.629881
LeftHandThumb1 -26.253704 0.000000 33.147579
Head -15.567830 -7.739579 7.559167
828
root 3.709908 30.189380 -5.800692 36.561839 -54.305337 -1.767966
RightUpLeg -57.322388 -1.034723 -6.965006
RightLeg 0.627991 -0.000000 -0.000000
RightFoot 12.162023 -1.677297 4.810935
RightToeBase 11.225380 -0.000000 -0.000000
LeftUpLeg -14.576540 35.357870 7.896408
LeftLeg 4.581526 -0.000000 -0.000000
LeftFoot -19.471593 7.251184 -36.543722
LeftToeBase 10.772925 -0.000000 -0.000000
Spine 12.373224 -31.109537 -10.743927
RightShoulder -24.310976 -19.490823 -18.128999
RightArm 1.723203 33.034840 55.408462
RightForeArm 5.603527 0.000000 36.649209
RightHand 20.887079 -0.000000 -20.823146
RightHandThumb1 -24.326973 -0.000000 -32.862282
LeftShoulder -8.205231 -7.417092 25.785988
LeftArm 35.394642 7.152739 -55.390614
LeftForeArm 9.207446 -0.000000 11.210958
LeftHand -0.602270 0.000000 0.196863
LeftHandThumb1 -26.253704 0.000000 33.147579
Head -15.881487 -7.815772 7.719588
829
root 3.680461 30.174053 -5.820922 37.094685 -54.699127 -1.988087
RightUpLeg -57.821139 -0.677385 -7.003196
RightLeg 0.660393 -0.000000 -0.000000
RightFoot 12.378885 -1.754921 4.871991
RightToeBase 11.727174 -0.000000 -0.000000
LeftUpLeg -14.691493 35.643979 7.749663
LeftLeg 4.383688 -0.000000 -0.000000
LeftFoot -19.420363 7.278430 -37.113022
LeftToeBase 10.881476 -0.000000 -0.000000
Spine 12.910489 -31.279570 -11.152789
RightShoulder -24.545103 -19.804914 -17.896767
RightArm 1.768792 32.956928 55.512022
RightForeArm 5.990322 0.000000 35.821634
RightHand 20.848371 -0.000000 -20.808158
RightHandThumb1 -24.326973 -0.000000 -32.862282
LeftShoulder -7.780507 -7.990476 25.801799
LeftArm 35.549439 7.542559 -55.362835
LeftForeArm 8.704326 -0.000000 11.385126
LeftHand -0.454054 -0.000000 -0.106525
LeftHandThumb1 -26.253704 0.000000 33.147579
Head -16.202660 -8.002022 7.951109
830
root 3.653543 30.159711 -5.840419 37.585858 -55.098253 -2.130350
RightUpLeg -58.347597 -0.389661 -7.028406
RightLeg 0.698710 -0.000000 -0.000000
RightFoot 12.612797 -1.778915 4.961884
RightToeBase 11.814424 -0.000000 -0.000000
LeftUpLeg -14.855520 35.839905 7.550416
LeftLeg 4.233303 -0.000000 -0.000000
LeftFoot -19.419957 7.344735 -37.612870
LeftToeBase 11.072035 -0.000000 -0.000000
Spine 13.428718 -31.553679 -11.613904
RightShoulder -24.601121 -19.900141 -17.842367
RightArm 1.540689 32.759031 55.512677
RightForeArm 6.339770 -0.000000 34.973583
RightHand 21.040359 -0.000000 -20.491531
RightHandThumb1 -24.326973 -0.000000 -32.862282
LeftShoulder -7.462857 -8.484466 25.787051
LeftArm 35.729248 7.289752 -55.799289
LeftForeArm 9.111788 0.000000 11.413994
LeftHand -0.578038 -0.000000 -0.429858
LeftHandThumb1 -26.253704 0.000000 33.147579
Head -16.509725 -8.030449 8.119649
831
root 3.623591 30.146093 -5.860131 38.081398 -55.499390 -2.267242
RightUpLeg -58.865240 -0.126005 -7.011019
RightLeg 0.721598 -0.000000 -0.000000
RightFoot 12.803697 -1.684126 4.916937
RightToeBase 11.786681 -0.000000 -0.000000
LeftUpLeg -15.022882 36.046824 7.356928
LeftLeg 4.087599 -0.000000 -0.000000
LeftFoot -19.343755 7.402535 -37.989610
LeftToeBase 11.014933 -0.000000 -0.000000
Spine 13.927577 -31.805454 -12.084637
RightShoulder -24.628893 -19.873540 -17.838640
RightArm 1.154901 32.490876 55.431560
RightForeArm 6.583059 -0.000000 34.162112
RightHand 21.013741 0.000000 -20.696791
RightHandThumb1 -24.326973 -0.000000 -32.862282
LeftShoulder -7.092231 -9.038443 25.762353
LeftArm 35.768778 7.246159 -56.036816
LeftForeArm 9.136637 -0.000000 11.561411
LeftHand -0.473234 -0.000000 -0.934572
LeftHandThumb1 -26.253704 0.000000 33.147579
Head -16.840895 -8.087163 8.290684
832
root 3.591806 30.131243 -5.882245 38.555726 -55.890654 -2.407808
RightUpLeg -59.335455 0.145117 -7.001361
RightLeg 0.725326 -0.000000 -0.000000
RightFoot 12.939388 -1.594458 4.882720
RightToeBase 11.747219 -0.000000 -0.000000
LeftUpLeg -15.135129 36.116062 7.241974
LeftLeg 3.961308 -0.000000 -0.000000
LeftFoot -19.327974 7.496341 -38.440508
LeftToeBase 10.912302 -0.000000 -0.000000
Spine 14.452516 -32.038249 -12.576494
RightShoulder -24.644623 -19.961199 -17.817915
RightArm 0.834065 32.201986 55.404232
RightForeArm 6.963620 -0.000000 33.337871
RightHand 21.184511 -0.000000 -20.617747
RightHandThumb1 -24.326973 -0.000000 -32.862282
LeftShoulder -6.711741 -9.381539 25.704492
LeftArm 35.962207 7.254171 -56.081366
LeftForeArm 8.883191 -0.000000 11.741452
LeftHand -0.448958 -0.000000 -1.378799
LeftHandThumb1 -26.253704 0.000000 33.147579
Head -17.118324 -8.135143 8.467589
833
root 3.564714 30.119769 -5.906212 39.131298 -56.252440 -2.577318
RightUpLeg -59.857122 0.365653 -6.936958
RightLeg 0.695379 -0.000000 -0.000000
RightFoot 13.107817 -1.420417 4.820362
RightToeBase 11.585135 -0.000000 -0.000000
LeftUpLeg -15.369702 36.117886 7.107612
LeftLeg 3.890202 -0.000000 -0.000000
LeftFoot -19.360199 7.659245 -38.726181
LeftToeBase 10.758152 -0.000000 -0.000000
Spine 14.886173 -32.244569 -12.973502
RightShoulder -24.745128 -20.009153 -17.739350
RightArm 0.504809 32.000387 55.326755
RightForeArm 7.138646 0.000000 32.600888
RightHand 21.215533 0.000000 -20.163886
RightHandThumb1 -24.326973 -0.000000 -32.862282
LeftShoulder -6.344559 -9.834018 25.582967
LeftArm 36.141534 7.238279 -56.154364
LeftForeArm 8.854166 0.000000 11.926007
LeftHand -0.647226 -0.000000 -1.690376
LeftHandThumb1 -26.253704 0.000000 33.147579
Head -17.457140 -8.240927 8.652633
834
root 3.534828 30.106328 -5.930043 39.656901 -56.651967 -2.750835
RightUpLeg -60.315810 0.643078 -6.932061
RightLeg 0.656178 -0.000000 -0.000000
RightFoot 13.223234 -1.266440 4.752944
RightToeBase 11.546642 -0.000000 -0.000000
LeftUpLeg -15.533068 36.138934 7.006919
LeftLeg 3.855503 -0.000000 -0.000000
LeftFoot -19.408648 7.766897 -39.060349
LeftToeBase 10.720675 -0.000000 -0.000000
Spine 15.404726 -32.407695 -13.464471
RightShoulder -24.831533 -19.901948 -17.721131
RightArm 0.113361 31.748190 55.248063
RightForeArm 7.464250 0.000000 31.760390
RightHand 21.421694 0.000000 -19.957873
RightHandThumb1 -24.326973 -0.000000 -32.862282
LeftShoulder -6.003130 -10.326248 25.518629
LeftArm 36.223132 7.220622 -56.261731
LeftForeArm 8.738767 -0.000000 12.122694
LeftHand -0.506155 -0.000000 -1.731409
LeftHandThumb1 -26.253704 0.000000 33.147579
Head -17.811348 -8.300643 8.887495
835
root 3.500379 30.093891 -5.960938 40.283458 -57.028334 -3.053977
RightUpLeg -60.733448 1.000267 -6.935995
RightLeg 0.561647 -0.000000 -0.000000
RightFoot 13.378342 -1.216183 4.779898
RightToeBase 11.443970 -0.000000 -0.000000
LeftUpLeg -15.723546 36.307658 6.965852
LeftLeg 3.876370 -0.000000 -0.000000
LeftFoot -19.399031 7.819938 -39.211625
LeftToeBase 10.861202 -0.000000 -0.000000
Spine 15.934365 -32.555573 -13.888434
RightShoulder -24.749853 -19.923303 -17.703801
RightArm -0.410887 31.544401 55.170831
RightForeArm 7.946071 -0.000000 31.092482
RightHand 21.423620 0.000000 -19.982494
RightHandThumb1 -24.326973 -0.000000 -32.862282
LeftShoulder -5.731832 -10.704558 25.458186
LeftArm 36.438710 7.283484 -56.252180
LeftForeArm 8.345743 -0.000000 12.284973
LeftHand -0.528415 0.000000 -2.367725
LeftHandThumb1 -26.253704 0.000000 33.147579
Head -18.220100 -8.355801 9.100167
836
root 3.477513 30.082754 -5.987451 40.961173 -57.310312 -3.343072
RightUpLeg -61.183143 1.260896 -6.946930
RightLeg 0.427322 -0.000000 -0.000000
RightFoot 13.555636 -1.144283 4.903969
RightToeBase 11.381721 -0.000000 -0.000000
LeftUpLeg -16.041035 36.389815 6.901710
LeftLeg 3.927190 -0.000000 -0.000000
LeftFoot -19.455904 7.813851 -39.425191
LeftToeBase 10.777484 -0.000000 -0.000000
Spine 16.406096 -32.731589 -14.148624
RightShoulder -24.874272 -19.937705 -17.688554
RightArm -0.726464 31.459600 55.193090
RightForeArm 8.247177 -0.000000 30.355790
RightHand 21.468976 0.000000 -19.733422
RightHandThumb1 -24.326973 -0.000000 -32.862282
LeftShoulder -5.433677 -11.139006 25.343307
LeftArm 36.640722 7.237199 -56.348456
LeftForeArm 8.159299 0.000000 12.406784
LeftHand -0.429630 -0.000000 -2.613909
LeftHandThumb1 -26.253704 0.000000 33.147579
Head -18.710313 -8.358001 9.218055
837
root 3.450686 30.070653 -6.016064 41.624582 -57.578818 -3.661441
RightUpLeg -61.579161 1.543399 -6.946143
RightLeg 0.284768 -0.000000 -0.000000
RightFoot 13.698445 -1.090814 4.973808
RightToeBase 11.379251 -0.000000 -0.000000
LeftUpLeg -16.341604 36.601021 6.850920
LeftLeg 3.991941 -0.000000 -0.000000
LeftFoot -19.410311 7.722953 -39.463934
LeftToeBase 10.702484 -0.000000 -0.000000
Spine 16.931414 -32.941594 -14.449073
RightShoulder -24.972850 -19.943866 -17.685187
RightArm -0.977121 31.358730 55.274030
RightForeArm 8.599426 0.000000 29.622335
RightHand 21.601429 -0.000000 -19.431300
RightHandThumb1 -24.326973 -0.000000 -32.862282
LeftShoulder -5.232279 -11.401744 25.294914
LeftArm 37.016920 7.192528 -56.452222
LeftForeArm 7.889311 -0.000000 12.367906
LeftHand -0.320976 0.000000 -2.951406
LeftHandThumb1 -26.253704 0.000000 33.147579
Head -19.176046 -8.415960 9.375734
